HIERARCHY
ROOT Hips
{
	OFFSET 0.000000 0.000000 0.000000
	CHANNELS 6 Xposition Yposition Zposition Zrotation Yrotation Xrotation 
	JOINT LHipJoint
	{
		OFFSET 0.000000 0.000000 0.000000
		CHANNELS 3 Zrotation Yrotation Xrotation
		JOINT LeftUpLeg
		{
			OFFSET 1.363060 -1.794630 0.839290
			CHANNELS 3 Zrotation Yrotation Xrotation
			JOINT LeftLeg
			{
				OFFSET 2.448110 -6.726130 0.000000
				CHANNELS 3 Zrotation Yrotation Xrotation
				JOINT LeftFoot
				{
					OFFSET 2.562200 -7.039590 0.000000
					CHANNELS 3 Zrotation Yrotation Xrotation
					JOINT LeftToeBase
					{
						OFFSET 0.157640 -0.433110 2.322550
						CHANNELS 3 Zrotation Yrotation Xrotation
						End Site
						{
							OFFSET 0.000000 0.000000 0.000000
						}
					}
				}
			}
		}
	}
	JOINT RHipJoint
	{
		OFFSET 0.000000 0.000000 0.000000
		CHANNELS 3 Zrotation Yrotation Xrotation
		JOINT RightUpLeg
		{
			OFFSET -1.305520 -1.794630 0.839290
			CHANNELS 3 Zrotation Yrotation Xrotation
			JOINT RightLeg
			{
				OFFSET -2.542530 -6.985550 0.000000
				CHANNELS 3 Zrotation Yrotation Xrotation
				JOINT RightFoot
				{
					OFFSET -2.568260 -7.056230 0.000000
					CHANNELS 3 Zrotation Yrotation Xrotation
					JOINT RightToeBase
					{
						OFFSET -0.164730 -0.452590 2.363150
						CHANNELS 3 Zrotation Yrotation Xrotation
						End Site
						{
							OFFSET 0.000000 0.000000 0.000000
						}
					}
				}
			}
		}
	}
	JOINT LowerBack
	{
		OFFSET 0.000000 0.000000 0.000000
		CHANNELS 3 Zrotation Yrotation Xrotation
		JOINT Spine
		{
			OFFSET 0.028270 2.035590 -0.193380
			CHANNELS 3 Zrotation Yrotation Xrotation
			JOINT Spine1
			{
				OFFSET 0.056720 2.048850 -0.042750
				CHANNELS 3 Zrotation Yrotation Xrotation
				JOINT Neck
				{
					OFFSET 0.000000 0.000000 0.000000
					CHANNELS 3 Zrotation Yrotation Xrotation
					JOINT Neck1
					{
						OFFSET -0.054170 1.746240 0.172020
						CHANNELS 3 Zrotation Yrotation Xrotation
						JOINT Head
						{
							OFFSET 0.104070 1.761360 -0.123970
							CHANNELS 3 Zrotation Yrotation Xrotation
							End Site
							{
								OFFSET 0.000000 0.000000 0.000000
							}
						}
					}
				}
				JOINT LeftShoulder
				{
					OFFSET 0.000000 0.000000 0.000000
					CHANNELS 3 Zrotation Yrotation Xrotation
					JOINT LeftArm
					{
						OFFSET 3.362410 1.200890 -0.311210
						CHANNELS 3 Zrotation Yrotation Xrotation
						JOINT LeftForeArm
						{
							OFFSET 4.983000 -0.000000 -0.000000
							CHANNELS 3 Zrotation Yrotation Xrotation
							JOINT LeftHand
							{
								OFFSET 3.483560 -0.000000 -0.000000
								CHANNELS 3 Zrotation Yrotation Xrotation
								JOINT LeftFingerBase
								{
									OFFSET 0.000000 0.000000 0.000000
									CHANNELS 3 Zrotation Yrotation Xrotation
									JOINT LeftHandIndex1
									{
										OFFSET 0.715260 -0.000000 -0.000000
										CHANNELS 3 Zrotation Yrotation Xrotation
										End Site
										{
											OFFSET 0.000000 0.000000 0.000000
										}
									}
								}
								JOINT LThumb
								{
									OFFSET 0.000000 0.000000 0.000000
									CHANNELS 3 Zrotation Yrotation Xrotation
									End Site
									{
										OFFSET 0.000000 0.000000 0.000000
									}
								}
							}
						}
					}
				}
				JOINT RightShoulder
				{
					OFFSET 0.000000 0.000000 0.000000
					CHANNELS 3 Zrotation Yrotation Xrotation
					JOINT RightArm
					{
						OFFSET -3.136600 1.374050 -0.404650
						CHANNELS 3 Zrotation Yrotation Xrotation
						JOINT RightForeArm
						{
							OFFSET -5.241900 -0.000000 -0.000000
							CHANNELS 3 Zrotation Yrotation Xrotation
							JOINT RightHand
							{
								OFFSET -3.444170 -0.000000 -0.000000
								CHANNELS 3 Zrotation Yrotation Xrotation
								JOINT RightFingerBase
								{
									OFFSET 0.000000 0.000000 0.000000
									CHANNELS 3 Zrotation Yrotation Xrotation
									JOINT RightHandIndex1
									{
										OFFSET -0.622530 -0.000000 -0.000000
										CHANNELS 3 Zrotation Yrotation Xrotation
										End Site
										{
											OFFSET 0.000000 0.000000 0.000000
										}
									}
								}
								JOINT RThumb
								{
									OFFSET 0.000000 0.000000 0.000000
									CHANNELS 3 Zrotation Yrotation Xrotation
									End Site
									{
										OFFSET 0.000000 0.000000 0.000000
									}
								}
							}
						}
					}
				}
			}
		}
	}
}
MOTION
Frames: 6
Frame Time: 0.008333
0.146052 18.259357 0.756954 -1.055374 3.671318 31.671330 3.170457 5.671910 1.053876 -6.860951 -30.585213 -26.376103 -1.451911 1.430727 8.499746 -6.482764 25.100563 0.044613 0.363200 -3.871300 -10.715000 -0.373774 -7.013202 2.425870 3.304664 40.800314 -29.271607 1.702011 -2.261398 11.842557 0.807924 -20.337606 -34.787461 -5.109900 -13.506400 41.295100 2.110573 1.743304 10.007225 23.031318 4.962059 -8.293301 -5.870191 1.662352 -10.721342 0.306525 -1.842435 10.418335 -3.638701 -5.259665 -30.624431 -1.061100 -2.784700 -10.017500 -17.380099 -3.304600 0.724689 -69.746545 13.780373 28.754763 154.217021 -39.172918 -109.624132 2.417696 0.734845 23.612002 4.447005 24.480603 0.978900 -7.125000 0.000000 0.000000 -26.416500 50.916400 -4.096100 13.508671 3.972166 2.294181 58.253153 4.778484 24.461614 -145.298935 39.829114 -106.894649 -0.385663 0.296929 37.074256 9.939483 -2.756630 -0.507100 7.125000 0.000000 0.000000 28.841300 -31.611900 10.680200 
0.147152 18.259857 0.756154 -1.024655 3.633965 31.728718 3.171966 5.667337 1.051727 -6.884067 -30.574820 -26.409358 -1.458044 1.415740 8.459241 -6.478703 25.088046 0.011512 0.348300 -3.791800 -10.491600 -0.384287 -6.997503 2.424311 3.226877 40.764897 -29.390878 1.693379 -2.285932 11.884048 0.781228 -20.231062 -34.771148 -5.128900 -13.527500 41.376600 2.031201 1.744149 9.938247 23.004173 4.953993 -8.298717 -5.820460 1.665323 -10.673986 0.344174 -1.843427 10.466314 -3.682848 -5.266199 -30.706038 -1.073400 -2.782500 -10.048600 -17.387649 -3.307782 0.720363 -69.766453 13.849430 28.791823 154.265362 -39.137289 -109.648564 2.433615 0.737612 23.694643 4.548146 24.546129 1.016300 -7.125000 0.000000 0.000000 -26.365400 50.980400 -4.130600 13.511743 3.971048 2.293159 58.255296 4.781789 24.492676 -145.279852 39.839853 -106.883646 -0.388599 0.307998 37.026258 9.815177 -2.728334 -0.497600 7.125000 0.000000 0.000000 28.753600 -31.601200 10.647500 
0.148852 18.259057 0.755054 -0.965709 3.598754 31.781259 3.172364 5.656284 1.048645 -6.963966 -30.526306 -26.489051 -1.454934 1.428928 8.481939 -6.457916 25.048768 0.096728 0.362700 -3.868500 -10.707100 -0.390803 -6.984049 2.412698 3.102296 40.765190 -29.461893 1.691019 -2.290079 11.880436 0.730356 -20.105673 -34.847971 -5.173500 -13.576600 41.567100 1.977534 1.742584 9.902127 22.932334 4.949843 -8.357386 -5.794296 1.665041 -10.635135 0.301615 -1.820134 10.523834 -3.615564 -5.231442 -30.734659 -1.048400 -2.771700 -10.051200 -17.388781 -3.314947 0.721711 -69.764600 13.899151 28.833091 154.288969 -39.123214 -109.656562 2.451372 0.744652 23.773922 4.666786 24.662652 1.062700 -7.125000 0.000000 0.000000 -26.324800 51.089100 -4.197200 13.525487 3.962337 2.289504 58.271503 4.746387 24.515190 -145.287296 39.834581 -106.889081 -0.391075 0.313671 37.022423 9.747785 -2.719727 -0.493600 7.125000 0.000000 0.000000 28.708000 -31.600300 10.626700 
0.148752 18.258357 0.754354 -0.988386 3.607489 31.726896 3.169247 5.655798 1.056214 -6.972952 -30.470431 -26.481776 -1.450611 1.447428 8.528617 -6.437353 24.977298 0.125124 0.376700 -3.941800 -10.912900 -0.387629 -6.990305 2.415572 3.168583 40.764179 -29.382874 1.691217 -2.283320 11.873993 0.700980 -20.008206 -34.851238 -5.215000 -13.621900 41.743300 1.993101 1.758897 9.963810 22.891341 4.959281 -8.320900 -5.808546 1.672173 -10.677269 0.328911 -1.835041 10.482794 -3.596455 -5.232983 -30.669364 -1.048200 -2.777900 -10.023600 -17.387135 -3.309862 0.724058 -69.702309 13.834191 28.862266 154.248699 -39.153985 -109.635881 2.441312 0.742291 23.765453 4.590588 24.623773 1.034500 -7.125000 0.000000 0.000000 -26.368500 51.048100 -4.177200 13.534187 3.963244 2.286075 58.289832 4.703176 24.448058 -145.333146 39.803844 -106.920377 -0.387177 0.313136 37.004023 9.776524 -2.688556 -0.489600 7.125000 0.000000 0.000000 28.717400 -31.572800 10.653200 
0.149351 18.257058 0.752755 -1.071683 3.640356 31.692920 3.177625 5.649437 1.060300 -6.909216 -30.406762 -26.531901 -1.441863 1.481199 8.600689 -6.423625 24.932540 0.150731 0.388800 -4.004000 -11.087900 -0.384263 -6.997257 2.419370 3.284099 40.787514 -29.327620 1.694824 -2.270656 11.858730 0.710643 -20.047036 -34.844974 -5.203100 -13.608900 41.692900 2.050726 1.770630 10.026776 22.914484 4.975838 -8.289943 -5.840761 1.677812 -10.722566 0.371619 -1.850150 10.454433 -3.646180 -5.252206 -30.626044 -1.069000 -2.783100 -10.015600 -17.386929 -3.301897 0.724833 -69.666584 13.786304 28.895042 154.244332 -39.157152 -109.632098 2.437678 0.755247 23.756982 4.534957 24.727203 1.019800 -7.125000 0.000000 0.000000 -26.464900 51.123200 -4.245600 13.530835 3.969332 2.288098 58.305049 4.696048 24.417753 -145.364811 39.782127 -106.941970 -0.384281 0.308890 36.990830 9.833595 -2.686990 -0.491600 7.125000 0.000000 0.000000 28.753400 -31.566600 10.675300 
0.150251 18.257557 0.751056 -1.105478 3.627382 31.673126 3.183343 5.641179 1.067888 -6.937627 -30.298873 -26.597420 -1.432150 1.521945 8.690507 -6.397447 24.861289 0.219633 0.404400 -4.082800 -11.309800 -0.392126 -7.000341 2.422308 3.344223 40.788282 -29.301502 1.700007 -2.258554 11.834095 0.765060 -20.189863 -34.779972 -5.144100 -13.544300 41.441700 2.062527 1.788078 10.058192 22.868351 4.987699 -8.262054 -5.855764 1.688933 -10.733445 0.321235 -1.846368 10.525023 -3.516122 -5.233207 -30.707544 -1.020600 -2.789000 -10.037800 -17.389146 -3.309935 0.725099 -69.578738 13.750331 28.923560 154.283513 -39.118685 -109.655086 2.428686 0.778171 23.731079 4.411734 24.886727 0.983400 -7.125000 0.000000 0.000000 -26.644200 51.232000 -4.352700 13.543231 3.963950 2.279137 58.341486 4.675723 24.371950 -145.389768 39.764006 -106.960276 -0.385360 0.321808 36.938024 9.704482 -2.629361 -0.477200 7.125000 0.000000 0.000000 28.654200 -31.532400 10.655800 
